# xmcd
#
# Track frame offsets:
#	150
#	17430
#	36014
#	53291
#	70580
#	88929
#	109733
#	127569
#	146873
#	165606
#	181816
#	199388
#	226246
#
# Disc length: 3854 seconds
#
# Revision: 3
# Processed by: cddbd v1.5.2PL0 Copyright (c) Steve Scherf et al.
# Submitted via: EasyCDDAExtractor 15.3.0.1
#
DISCID=9e0f0c0d
DTITLE=Innis
DYEAR=2000
DGENRE=Latin
TTITLE0=Sentiras Amor
TTITLE1=Dime Donde, Dime Cuando
TTITLE2=Yo Te Quiero Asi
TTITLE3=Reina Del Sol
TTITLE4=Hablando Del Corazon
TTITLE5=Nena (Excesivamente Enamorado)
TTITLE6=Caleidoscopio
TTITLE7=Con Todo El Corazon
TTITLE8=Bellisima
TTITLE9=Tell Me Where, Tell Me How (Dime Donde, Dime Cuando) (Bonus Track)
TTITLE10=How I Need You Girl (Sentiras Amor) (Bonus Track)
TTITLE11=Mi Amor Es Un Pecado (Bonus Track)
TTITLE12=Data Track
EXTD=
EXTT0=
EXTT1=
EXTT2=
EXTT3=
EXTT4=
EXTT5=
EXTT6=
EXTT7=
EXTT8=
EXTT9=
EXTT10=
EXTT11=
EXTT12=
PLAYORDER=
